<?xml version="1.0" encoding="UTF-8" standalone="no"?><!DOCTYPE svg PUBLIC "-//W3C//DTD SVG 1.1//EN" "http://www.w3.org/Graphics/SVG/1.1/DTD/svg11.dtd"><svg width="100%" height="100%" viewBox="0 0 241 34" version="1.1" xmlns="http://www.w3.org/2000/svg" xmlns:xlink="http://www.w3.org/1999/xlink" xml:space="preserve" style="fill-rule:evenodd;clip-rule:evenodd;stroke-linecap:round;stroke-linejoin:round;stroke-miterlimit:1.41421;"><g><g><path d="M2.5,31.023l7.665,-7.665l7.664,7.665l8.315,-8.315l8.315,8.315l8.756,-8.756l8.756,8.756l7.953,-7.953" style="fill:none;stroke:#eb6c6b;stroke-width:5px;"/><path d="M2.5,11.256l7.665,-7.665l7.664,7.665l8.315,-8.315l8.315,8.315l8.756,-8.756l8.756,8.756l7.953,-7.953" style="fill:none;stroke:#eb6c6b;stroke-width:5px;"/></g><g><path d="M180.632,31.023l7.664,-7.665l7.665,7.665l8.315,-8.315l8.315,8.315l8.756,-8.756l8.756,8.756l7.953,-7.953" style="fill:none;stroke:#eb6c6b;stroke-width:5px;"/><path d="M180.632,11.256l7.664,-7.665l7.665,7.665l8.315,-8.315l8.315,8.315l8.756,-8.756l8.756,8.756l7.953,-7.953" style="fill:none;stroke:#eb6c6b;stroke-width:5px;"/></g><text x="70.939px" y="31.023px" style="font-family:'OpenSans-Bold', 'Open Sans', sans-serif;font-weight:700;font-size:37.542px;fill:#eb6c6b;">Color</text></g></svg>