<?xml version="1.0" encoding="UTF-8" standalone="no"?>
<!DOCTYPE svg PUBLIC "-//W3C//DTD SVG 1.1//EN" "http://www.w3.org/Graphics/SVG/1.1/DTD/svg11.dtd">
<svg width="100%" height="100%" viewBox="0 0 355 68" version="1.1" xmlns="http://www.w3.org/2000/svg" xmlns:xlink="http://www.w3.org/1999/xlink" xml:space="preserve" style="fill-rule:evenodd;clip-rule:evenodd;stroke-linejoin:round;stroke-miterlimit:1.41421;">
    <g transform="matrix(1,0,0,1,-7816.85,-76.8065)">
        <g transform="matrix(1,0,0,1,1528.03,0)">
            <g>
                <g transform="matrix(0.26521,0,0,0.26521,5698.68,-95.0887)">
                    <path d="M2896.06,882.096L2770.37,755.967L2770.37,709.606L2812.69,667L2859.81,667L2896.06,703.463L2933.57,667L2980.12,667L3021.75,708.332L3021.75,755.406L2896.06,882.096Z" style="fill:none;stroke:rgb(235,108,107);stroke-width:37.71px;"/>
                </g>
                <g transform="matrix(1,0,0,1,2079.02,-2583.95)">
                    <path d="M4214.8,2722.8L4230.13,2707.47L4245.46,2722.8L4262.09,2706.17L4278.72,2722.8L4296.23,2705.29L4313.74,2722.8L4329.65,2706.89" style="fill:none;stroke:rgb(235,108,107);stroke-width:10px;stroke-linecap:round;"/>
                </g>
                <g transform="matrix(1,0,0,1,2079.02,-2623.48)">
                    <path d="M4214.8,2722.8L4230.13,2707.47L4245.46,2722.8L4262.09,2706.17L4278.72,2722.8L4296.23,2705.29L4313.74,2722.8L4329.65,2706.89" style="fill:none;stroke:rgb(235,108,107);stroke-width:10px;stroke-linecap:round;"/>
                </g>
                <g transform="matrix(1,0,0,1,2309.08,-2583.95)">
                    <path d="M4214.8,2722.8L4230.13,2707.47L4245.46,2722.8L4262.09,2706.17L4278.72,2722.8L4296.23,2705.29L4313.74,2722.8L4329.65,2706.89" style="fill:none;stroke:rgb(235,108,107);stroke-width:10px;stroke-linecap:round;"/>
                </g>
                <g transform="matrix(1,0,0,1,2309.08,-2623.48)">
                    <path d="M4214.8,2722.8L4230.13,2707.47L4245.46,2722.8L4262.09,2706.17L4278.72,2722.8L4296.23,2705.29L4313.74,2722.8L4329.65,2706.89" style="fill:none;stroke:rgb(235,108,107);stroke-width:10px;stroke-linecap:round;"/>
                </g>
            </g>
        </g>
    </g>
</svg>
