<?xml version="1.0" encoding="UTF-8" standalone="no"?><!DOCTYPE svg PUBLIC "-//W3C//DTD SVG 1.1//EN" "http://www.w3.org/Graphics/SVG/1.1/DTD/svg11.dtd"><svg width="100%" height="100%" viewBox="0 0 278 35" version="1.1" xmlns="http://www.w3.org/2000/svg" xmlns:xlink="http://www.w3.org/1999/xlink" xml:space="preserve" style="fill-rule:evenodd;clip-rule:evenodd;stroke-linecap:round;stroke-linejoin:round;stroke-miterlimit:1.41421;"><g><g><g><path d="M2.5,31.701l7.665,-7.664l7.664,7.664l8.315,-8.315l8.315,8.315l8.756,-8.756l8.756,8.756l7.953,-7.953" style="fill:none;stroke:#eb6c6b;stroke-width:5px;"/><path d="M2.5,11.934l7.665,-7.664l7.664,7.664l8.315,-8.315l8.315,8.315l8.756,-8.756l8.756,8.756l7.953,-7.953" style="fill:none;stroke:#eb6c6b;stroke-width:5px;"/></g><g><path d="M217.345,31.023l7.665,-7.665l7.664,7.665l8.316,-8.315l8.315,8.315l8.756,-8.756l8.755,8.756l7.953,-7.953" style="fill:none;stroke:#eb6c6b;stroke-width:5px;"/><path d="M217.345,11.256l7.665,-7.665l7.664,7.665l8.316,-8.315l8.315,8.315l8.756,-8.756l8.755,8.756l7.953,-7.953" style="fill:none;stroke:#eb6c6b;stroke-width:5px;"/></g></g><text x="67.338px" y="30.656px" style="font-family:'OpenSans-Bold', 'Open Sans', sans-serif;font-weight:700;font-size:37.542px;fill:#eb6c6b;">Pattern</text></g></svg>